<?xml version="1.0" standalone="no"?>
<!DOCTYPE svg PUBLIC "-//W3C//DTD SVG 20010904//EN"
 "http://www.w3.org/TR/2001/REC-SVG-20010904/DTD/svg10.dtd">
<svg version="1.0" xmlns="http://www.w3.org/2000/svg"
 width="700.000000pt" height="700.000000pt" viewBox="0 0 700.000000 700.000000"
 preserveAspectRatio="xMidYMid meet">
<metadata>
Created by potrace 1.14, written by Peter Selinger 2001-2017
</metadata>
<g transform="translate(0.000000,700.000000) scale(0.100000,-0.100000)"
fill="#000000" stroke="none">
<path d="M3450 6864 c-387 -70 -681 -417 -922 -1089 -73 -206 -174 -537 -208
-690 -7 -27 -13 -57 -16 -65 -28 -110 -119 -563 -130 -648 -2 -18 -18 -121
-39 -252 -4 -28 -12 -88 -20 -152 -3 -24 -7 -59 -10 -78 -11 -82 -25 -214 -29
-267 -2 -28 -9 -35 -41 -38 -23 -3 -66 -10 -135 -22 -212 -36 -491 -153 -692
-289 -139 -94 -197 -142 -313 -258 -117 -117 -160 -169 -244 -291 -211 -308
-348 -666 -387 -1015 -24 -215 -24 -427 0 -555 8 -43 18 -105 17 -107 -4 -11
74 -219 101 -270 128 -244 335 -420 566 -482 67 -18 71 -19 142 -31 49 -8 217
-9 265 -1 17 2 50 7 75 11 257 38 492 201 765 533 l58 71 36 -72 c98 -197 246
-366 394 -451 59 -34 167 -75 215 -82 20 -3 43 -7 51 -10 19 -6 198 -6 236 1
17 3 46 7 65 10 35 6 146 39 188 56 210 86 410 230 660 474 68 66 126 121 130
122 4 1 20 -25 37 -59 92 -189 250 -359 425 -460 127 -72 292 -123 470 -143
67 -8 256 -8 302 -1 18 3 51 8 73 11 225 31 505 179 694 367 270 267 483 693
536 1071 3 27 8 57 10 68 18 91 23 342 11 489 -13 147 -59 344 -112 475 -44
106 -118 249 -156 300 -129 171 -262 292 -411 374 -53 29 -168 77 -207 86 -56
14 -161 35 -190 38 -19 3 -37 6 -39 6 -3 1 5 11 16 24 26 28 204 265 258 344
221 322 388 647 494 962 39 116 107 379 116 452 4 30 8 56 10 59 2 3 6 28 9
55 4 28 9 66 11 85 38 302 22 592 -44 797 -86 269 -275 469 -497 527 -92 24
-284 16 -397 -18 -353 -105 -626 -388 -900 -931 -117 -231 -199 -427 -287
-680 -36 -105 -126 -393 -135 -435 -2 -8 -19 -78 -38 -155 -20 -77 -47 -194
-62 -260 -14 -66 -30 -140 -36 -165 -10 -47 -13 -62 -29 -150 -6 -30 -12 -66
-15 -80 -6 -29 -34 -201 -41 -245 -2 -16 -6 -41 -9 -55 -37 -196 -85 -677
-100 -990 -5 -94 -5 -556 0 -630 7 -117 17 -254 20 -269 1 -9 6 -44 10 -79 l7
-63 -53 -62 c-199 -232 -400 -422 -519 -490 -120 -68 -258 -87 -344 -46 -104
49 -195 205 -221 380 -4 24 -8 46 -10 49 -5 8 -23 144 -31 227 l-6 72 72 128
c97 171 100 177 147 263 604 1114 1013 2179 1138 2963 3 17 8 43 10 57 3 14 7
45 10 70 3 25 7 56 10 70 29 152 34 559 10 747 -42 330 -174 577 -377 706 -93
59 -160 79 -283 82 -60 2 -121 2 -135 -1z m68 -690 c26 -18 48 -57 72 -133 36
-110 45 -198 45 -431 0 -189 -7 -294 -30 -440 -3 -19 -8 -55 -10 -79 -3 -24
-10 -64 -15 -88 -6 -24 -13 -60 -16 -81 -5 -31 -66 -301 -79 -352 -2 -8 -11
-42 -20 -75 -78 -292 -228 -718 -398 -1130 -53 -130 -197 -458 -204 -465 -4
-4 4 201 12 310 1 19 6 85 9 145 4 61 9 133 11 160 2 28 7 84 11 125 3 41 7
91 9 110 2 19 7 73 10 120 4 47 8 96 11 110 2 14 6 59 9 100 4 41 8 86 11 100
2 14 6 52 10 85 9 98 16 156 29 255 3 19 7 55 10 80 3 25 8 56 10 70 2 14 9
61 15 105 7 44 13 87 15 95 1 8 6 35 10 60 9 63 14 92 19 115 2 11 7 40 11 65
4 25 9 54 12 65 2 11 10 52 18 90 7 39 23 113 35 165 12 52 23 102 25 110 32
146 104 367 154 475 43 92 82 142 126 161 38 17 36 17 63 -2z m2241 0 c102
-21 165 -196 164 -459 0 -130 -8 -250 -18 -285 -2 -8 -7 -35 -10 -60 -10 -72
-55 -268 -82 -355 -27 -87 -89 -268 -103 -300 -5 -11 -40 -94 -78 -185 -39
-91 -88 -203 -110 -250 -22 -47 -51 -110 -65 -140 -118 -261 -515 -1031 -535
-1038 -5 -1 -8 9 -6 23 1 14 5 58 9 98 3 40 8 88 10 107 4 34 9 76 20 190 13
127 44 376 50 400 2 8 7 42 10 75 4 32 8 62 10 65 1 3 6 32 9 65 4 33 9 67 11
75 2 8 6 32 9 53 9 58 17 108 22 131 2 11 6 35 9 51 3 17 8 41 10 55 3 14 8
36 10 50 3 14 8 40 11 59 7 42 11 63 24 126 6 28 12 59 14 70 2 11 18 81 36
155 17 74 33 144 35 155 20 115 153 553 204 670 10 22 26 60 37 85 59 140 159
280 219 306 36 16 34 16 74 8z m-3748 -3457 c-15 -494 -3 -813 40 -1110 l20
-138 -100 -132 c-221 -291 -343 -378 -523 -371 -167 6 -274 116 -312 319 -15
79 -16 343 -1 425 6 36 22 120 29 155 12 55 58 192 89 263 37 85 133 254 164
287 10 11 35 43 55 70 62 86 196 206 306 275 59 37 224 110 232 103 3 -2 3
-68 1 -146z m3539 71 c63 -20 108 -49 161 -102 151 -153 208 -347 203 -696 -2
-107 -5 -208 -7 -225 -3 -16 -8 -52 -12 -80 -30 -213 -126 -424 -246 -543
-198 -197 -491 -164 -654 72 -41 60 -90 189 -105 278 -36 211 -32 545 10 734
53 240 184 444 338 527 93 50 221 65 312 35z"/>
</g>
</svg>
