<?xml version="1.0" standalone="no"?>
<!DOCTYPE svg PUBLIC "-//W3C//DTD SVG 20010904//EN"
 "http://www.w3.org/TR/2001/REC-SVG-20010904/DTD/svg10.dtd">
<svg version="1.0" xmlns="http://www.w3.org/2000/svg"
 width="700.000000pt" height="700.000000pt" viewBox="0 0 700.000000 700.000000"
 preserveAspectRatio="xMidYMid meet">
<metadata>
Created by potrace 1.14, written by Peter Selinger 2001-2017
</metadata>
<g transform="translate(0.000000,700.000000) scale(0.100000,-0.100000)"
fill="#000000" stroke="none">
<path d="M5529 5746 c-2 -2 -29 -6 -59 -10 -81 -10 -119 -15 -180 -26 -30 -5
-75 -12 -100 -15 -25 -3 -52 -8 -60 -10 -8 -2 -37 -7 -65 -10 -27 -3 -75 -9
-105 -15 -30 -5 -75 -12 -100 -15 -45 -6 -69 -10 -125 -19 -36 -6 -211 -32
-310 -47 -38 -5 -73 -13 -76 -17 -4 -4 -14 -50 -24 -102 -9 -52 -36 -196 -60
-320 -60 -309 -85 -439 -91 -480 -3 -19 -9 -51 -14 -70 -5 -19 -11 -51 -14
-70 -3 -19 -24 -129 -46 -245 -36 -184 -53 -273 -75 -390 -5 -29 -9 -51 -20
-105 -3 -14 -8 -41 -11 -60 -3 -19 -7 -43 -10 -53 -3 -10 -7 -30 -9 -45 -2
-15 -13 -73 -24 -130 -12 -56 -23 -115 -26 -130 -3 -15 -7 -38 -10 -52 -3 -14
-8 -36 -10 -50 -2 -14 -7 -38 -10 -55 -3 -16 -19 -102 -36 -190 -29 -152 -76
-394 -85 -439 -2 -12 -7 -36 -10 -55 -6 -38 -10 -56 -24 -126 -5 -27 -12 -61
-14 -75 -3 -14 -12 -61 -20 -105 -8 -44 -18 -93 -21 -110 -2 -16 -14 -73 -24
-125 l-19 -95 -1 1787 -1 1788 -35 -5 c-96 -14 -112 -16 -137 -20 -14 -3 -117
-18 -228 -35 -203 -30 -244 -37 -290 -45 -14 -2 -45 -7 -70 -10 -25 -3 -74
-11 -110 -16 -36 -6 -81 -13 -100 -15 -19 -3 -44 -6 -55 -8 -11 -2 -58 -9
-105 -17 -47 -7 -88 -17 -91 -21 -3 -4 -5 -317 -5 -694 1 -377 -2 -688 -5
-690 -4 -2 -14 11 -22 29 -76 158 -233 325 -387 409 -241 131 -594 159 -900
72 -535 -153 -938 -610 -1035 -1174 -21 -119 -25 -315 -10 -450 29 -270 155
-572 328 -785 56 -69 191 -201 258 -253 93 -70 215 -139 323 -181 89 -35 128
-47 221 -67 118 -26 354 -30 485 -9 304 50 530 201 686 460 17 28 33 58 37 68
17 46 22 -9 21 -242 0 -168 3 -251 10 -252 6 -1 282 -2 614 -3 l602 -2 0 134
0 134 48 -36 c132 -101 420 -226 598 -260 11 -2 37 -9 59 -14 22 -6 54 -14 70
-17 55 -10 160 -26 195 -31 19 -2 51 -6 70 -9 135 -17 453 -23 605 -10 811 67
1389 524 1619 1282 30 97 60 257 73 394 15 144 8 503 -12 598 -43 210 -68 288
-127 405 -148 295 -407 482 -748 541 -110 19 -287 26 -364 14 -71 -12 -215
-54 -274 -81 -61 -28 -165 -101 -191 -134 -28 -36 -27 -27 14 83 36 95 108
349 118 414 3 19 15 78 26 133 12 54 23 108 25 120 2 11 29 145 60 297 31 151
56 279 56 282 0 7 -24 10 -31 3z m188 -1495 c96 -48 133 -159 136 -401 1 -142
-7 -348 -17 -410 -2 -14 -8 -56 -12 -95 -4 -38 -8 -72 -9 -75 0 -3 -4 -27 -9
-55 -4 -27 -9 -61 -11 -75 -3 -21 -26 -159 -40 -240 -3 -14 -7 -36 -10 -50 -9
-47 -16 -85 -21 -115 -4 -26 -24 -121 -40 -190 -3 -11 -7 -31 -10 -44 -31
-149 -103 -368 -160 -486 -96 -197 -212 -277 -402 -277 -100 0 -160 16 -238
64 -53 31 -55 35 -51 68 6 45 45 261 57 320 5 25 12 61 15 80 3 19 8 42 10 50
2 8 6 31 9 50 3 19 22 123 41 230 20 107 38 204 39 215 2 11 11 61 20 110 9
50 18 104 21 120 3 17 15 80 26 140 12 61 23 121 25 135 2 14 6 34 9 46 3 12
7 39 10 60 3 21 10 59 15 84 5 25 12 61 15 80 19 130 96 384 129 430 6 8 20
31 30 50 52 94 123 155 214 186 76 26 153 24 209 -5z m-3714 -745 c196 -63
365 -245 402 -433 7 -35 7 -190 1 -222 -49 -234 -227 -419 -447 -466 -60 -13
-178 -13 -244 -1 -22 5 -78 26 -123 48 -96 45 -209 149 -255 232 -91 164 -94
399 -9 556 86 157 234 268 407 303 45 9 223 -2 268 -17z"/>
</g>
</svg>
