<svg width="128" height="128" viewBox="0 0 128 128" fill="none" xmlns="http://www.w3.org/2000/svg">
<path fill-rule="evenodd" clip-rule="evenodd" d="M46.6449 33.5494V58.7506C44.9196 55.0926 42.642 52.4354 39.8121 50.779C37.0515 49.1225 33.6694 48.2943 29.6664 48.2943C25.2494 48.2943 21.0737 49.4677 17.1396 51.8143C13.2746 54.1608 10.1688 57.4047 7.82217 61.5458C5.54456 65.618 4.40576 70.104 4.40576 75.0044C4.40576 79.6285 5.51005 84.0113 7.71864 88.1524C9.92723 92.2245 12.9295 95.5028 16.7255 97.9875C20.5906 100.472 24.8696 101.714 29.5629 101.714C37.707 101.714 43.401 98.2291 46.6449 91.2582V100.886H68.4892V30.1859L46.6449 33.5494ZM36.3957 85.3571C39.2945 85.3571 41.7102 84.3218 43.6426 82.2513C45.6442 80.1808 46.6449 77.765 46.6449 75.0044V74.5903C46.6449 71.8986 45.6097 69.5864 43.5391 67.6539C41.4686 65.6523 39.0874 64.6516 36.3957 64.6516C33.497 64.6516 31.0469 65.6869 29.0453 67.7575C27.1128 69.7591 26.1465 72.1746 26.1465 75.0044C26.1465 77.9032 27.1472 80.3532 29.1488 82.3548C31.2194 84.3564 33.6351 85.3571 36.3957 85.3571Z" fill="url(#paint0_linear_130_119)"/>
<path fill-rule="evenodd" clip-rule="evenodd" d="M46.6449 33.5494V58.7506C44.9196 55.0926 42.642 52.4354 39.8121 50.779C37.0515 49.1225 33.6694 48.2943 29.6664 48.2943C25.2494 48.2943 21.0737 49.4677 17.1396 51.8143C13.2746 54.1608 10.1688 57.4047 7.82217 61.5458C5.54456 65.618 4.40576 70.104 4.40576 75.0044C4.40576 79.6285 5.51005 84.0113 7.71864 88.1524C9.92723 92.2245 12.9295 95.5028 16.7255 97.9875C20.5906 100.472 24.8696 101.714 29.5629 101.714C37.707 101.714 43.401 98.2291 46.6449 91.2582V100.886H68.4892V30.1859L46.6449 33.5494ZM36.3957 85.3571C39.2945 85.3571 41.7102 84.3218 43.6426 82.2513C45.6442 80.1808 46.6449 77.765 46.6449 75.0044V74.5903C46.6449 71.8986 45.6097 69.5864 43.5391 67.6539C41.4686 65.6523 39.0874 64.6516 36.3957 64.6516C33.497 64.6516 31.0469 65.6869 29.0453 67.7575C27.1128 69.7591 26.1465 72.1746 26.1465 75.0044C26.1465 77.9032 27.1472 80.3532 29.1488 82.3548C31.2194 84.3564 33.6351 85.3571 36.3957 85.3571Z" fill="black" fill-opacity="0.25"/>
<path fill-rule="evenodd" clip-rule="evenodd" d="M42.2394 29.1083V54.3452C40.514 50.6871 38.2364 48.03 35.4066 46.3735C32.646 44.7171 29.2639 43.8889 25.2609 43.8889C20.8438 43.8889 16.6682 45.0623 12.7341 47.4088C8.86908 49.7554 5.76326 52.9993 3.41665 57.1404C1.13905 61.2125 0.000244141 65.6986 0.000244141 70.599C0.000244141 75.2231 1.10453 79.6059 3.31312 83.7469C5.52171 87.8191 8.52401 91.0974 12.32 93.582C16.185 96.0667 20.4641 97.309 25.1574 97.309C33.3015 97.309 38.9955 93.8237 42.2394 86.8528V96.4808H64.0837V25.7448L42.2394 29.1083ZM31.9902 80.9517C34.889 80.9517 37.3047 79.9164 39.2371 77.8459C41.2387 75.7753 42.2394 73.3596 42.2394 70.599V70.1849C42.2394 67.4931 41.2042 65.181 39.1336 63.2485C37.0631 61.2469 34.6819 60.2462 31.9902 60.2462C29.0914 60.2462 26.6414 61.2815 24.6398 63.352C22.7073 65.3536 21.741 67.7691 21.741 70.599C21.741 73.4977 22.7417 75.9478 24.7433 77.9494C26.8138 79.951 29.2296 80.9517 31.9902 80.9517Z" fill="#DFDFDF"/>
<path fill-rule="evenodd" clip-rule="evenodd" d="M42.2394 29.1083V54.3452C40.514 50.6871 38.2364 48.03 35.4066 46.3735C32.646 44.7171 29.2639 43.8889 25.2609 43.8889C20.8438 43.8889 16.6682 45.0623 12.7341 47.4088C8.86908 49.7554 5.76326 52.9993 3.41665 57.1404C1.13905 61.2125 0.000244141 65.6986 0.000244141 70.599C0.000244141 75.2231 1.10453 79.6059 3.31312 83.7469C5.52171 87.8191 8.52401 91.0974 12.32 93.582C16.185 96.0667 20.4641 97.309 25.1574 97.309C33.3015 97.309 38.9955 93.8237 42.2394 86.8528V96.4808H64.0837V25.7448L42.2394 29.1083ZM31.9902 80.9517C34.889 80.9517 37.3047 79.9164 39.2371 77.8459C41.2387 75.7753 42.2394 73.3596 42.2394 70.599V70.1849C42.2394 67.4931 41.2042 65.181 39.1336 63.2485C37.0631 61.2469 34.6819 60.2462 31.9902 60.2462C29.0914 60.2462 26.6414 61.2815 24.6398 63.352C22.7073 65.3536 21.741 67.7691 21.741 70.599C21.741 73.4977 22.7417 75.9478 24.7433 77.9494C26.8138 79.951 29.2296 80.9517 31.9902 80.9517Z" fill="url(#paint1_linear_130_119)" fill-opacity="0.8"/>
<path fill-rule="evenodd" clip-rule="evenodd" d="M81.2438 28.2217L68.459 95.9059C69.9291 97.2452 71.6793 98.373 73.7095 99.2893C79.4501 101.827 86.1358 103.096 93.7665 103.096C104.828 103.096 113.403 99.677 119.494 92.8398C125.165 86.5664 128 78.4252 128 68.4161C128 60.733 126.215 54.9179 122.644 50.9706C119.074 46.9529 114.034 44.944 107.523 44.944C106.333 44.944 105.248 45.085 104.268 45.3669C100.907 46.1423 98.457 47.5168 96.9168 49.4904C97.8969 47.1644 98.772 44.3449 99.5421 41.032L102.788 24.9044L81.2438 28.2217ZM89.5661 94.9544C91.0362 96.2231 92.6814 96.8575 94.5016 96.8575C96.3218 96.8575 97.7569 96.5051 98.807 95.8002C99.8571 95.0953 100.767 94.038 101.537 92.6283C103.637 88.822 105.528 81.1037 107.208 69.4734C107.698 66.1605 107.943 62.8476 107.943 59.5348C107.943 56.2219 107.558 54.0368 106.788 52.9795C106.088 51.9222 105.038 51.3936 103.638 51.3936C99.3671 51.3936 96.5318 55.5875 95.1317 63.9754L89.5661 94.9544Z" fill="url(#paint2_linear_130_119)"/>
<path fill-rule="evenodd" clip-rule="evenodd" d="M76.8764 23.7748L64.0837 91.5006C65.5539 92.8399 67.3041 93.9677 69.3343 94.884C75.0748 97.4215 81.7605 98.6903 89.3913 98.6903C100.452 98.6903 109.028 95.2717 115.119 88.4345C120.789 82.1611 123.625 74.0199 123.625 64.0108C123.625 56.3277 121.84 50.5126 118.269 46.5653C114.699 42.5476 109.658 40.5387 103.148 40.5387C101.958 40.5387 100.872 40.6797 99.8923 40.9616C96.532 41.737 94.0817 43.1115 92.5416 45.0851C93.5217 42.759 94.3968 39.9396 95.1668 36.6267L98.4207 20.4575L76.8764 23.7748ZM85.1908 90.5491C86.661 91.8178 88.3062 92.4522 90.1263 92.4522C91.9465 92.4522 93.3817 92.0998 94.4318 91.3949C95.4819 90.69 96.392 89.6327 97.162 88.223C99.2622 84.4167 101.152 76.6984 102.833 65.0681C103.323 61.7552 103.568 58.4423 103.568 55.1295C103.568 51.8166 103.183 49.6315 102.413 48.5742C101.712 47.5169 100.662 46.9883 99.2623 46.9883C94.9918 46.9883 92.1566 51.1822 90.7564 59.5701L85.1908 90.5491Z" fill="url(#paint3_linear_130_119)"/>
<path fill-rule="evenodd" clip-rule="evenodd" d="M76.8764 23.7748L64.0837 91.5006C65.5539 92.8399 67.3041 93.9677 69.3343 94.884C75.0748 97.4215 81.7605 98.6903 89.3913 98.6903C100.452 98.6903 109.028 95.2717 115.119 88.4345C120.789 82.1611 123.625 74.0199 123.625 64.0108C123.625 56.3277 121.84 50.5126 118.269 46.5653C114.699 42.5476 109.658 40.5387 103.148 40.5387C101.958 40.5387 100.872 40.6797 99.8923 40.9616C96.532 41.737 94.0817 43.1115 92.5416 45.0851C93.5217 42.759 94.3968 39.9396 95.1668 36.6267L98.4207 20.4575L76.8764 23.7748ZM85.1908 90.5491C86.661 91.8178 88.3062 92.4522 90.1263 92.4522C91.9465 92.4522 93.3817 92.0998 94.4318 91.3949C95.4819 90.69 96.392 89.6327 97.162 88.223C99.2622 84.4167 101.152 76.6984 102.833 65.0681C103.323 61.7552 103.568 58.4423 103.568 55.1295C103.568 51.8166 103.183 49.6315 102.413 48.5742C101.712 47.5169 100.662 46.9883 99.2623 46.9883C94.9918 46.9883 92.1566 51.1822 90.7564 59.5701L85.1908 90.5491Z" fill="#FFF6CF" class="bpath" fill-opacity="0.6"/>
<defs>
<linearGradient id="paint0_linear_130_119" x1="93.0596" y1="173.323" x2="93.0596" y2="-76.8679" gradientUnits="userSpaceOnUse">
<stop stop-color="#11998E"/>
<stop offset="1" stop-color="#38EF7D"/>
</linearGradient>
<linearGradient id="paint1_linear_130_119" x1="88.6541" y1="168.918" x2="88.6541" y2="-81.2733" gradientUnits="userSpaceOnUse">
<stop stop-color="#11998E"/>
<stop offset="1" stop-color="#38EF7D"/>
</linearGradient>
<linearGradient id="paint2_linear_130_119" x1="225.555" y1="12.8726" x2="225.555" y2="118.603" gradientUnits="userSpaceOnUse">
<stop stop-color="#F46B45"/>
<stop offset="1" stop-color="#EEA849"/>
</linearGradient>
<linearGradient id="paint3_linear_130_119" x1="93.8542" y1="20.4575" x2="93.8542" y2="98.6903" gradientUnits="userSpaceOnUse">
<stop stop-color="#F46B45"/>
<stop offset="1" stop-color="#EEA849"/>
</linearGradient>
</defs>
<style>
@media (prefers-color-scheme: light) {
    :root { filter: none; }
}
@media (prefers-color-scheme: dark) {
    :root { filter: none; }
    :root .bpath { fill-opacity: 1.0; }
}
</style>
</svg>

